<svg id="Layer_1" data-name="Layer 1" xmlns="http://www.w3.org/2000/svg" viewBox="0 0 123.51 38.19"><defs><style>.cls-1{fill:#f7fff7;}</style></defs><path class="cls-1" d="M19.48,63.77V96.12H43.77V63.77ZM38,75.38V71.56h3.83v3.82Zm3.81,2.33v3.83H38V77.71Zm-9.18,0h3.82v3.83H32.65Zm-5.9,0h3.82v3.83H26.75Zm3.84-2.33H26.76V71.56h3.83Zm-9.18,0V71.56h3.83v3.82Zm3.81,2.33v3.83H21.39V77.71ZM21.37,65.4H25.2v3.83H21.37Zm3.85,28.76H21.39V90.33h3.83Zm0-6.47H21.43V83.87h3.82Zm11.26,0H32.68V83.87h3.83ZM38,65.4h3.82v3.83H38Zm3.84,28.76H38V90.33h3.83Zm0-6.47H38V83.87h3.83Z" transform="translate(-19.48 -63.77)"/><text x="-19.48" y="-63.77"/><path class="cls-1" d="M52.53,95.41a6.4,6.4,0,0,1-3.78-1,5,5,0,0,1-1.86-2.8,17.45,17.45,0,0,1-.52-4.56V82.34a16.65,16.65,0,0,1,.54-4.61A4.92,4.92,0,0,1,48.8,75,6.49,6.49,0,0,1,52.53,74,5.81,5.81,0,0,1,56.4,75.1,5.35,5.35,0,0,1,58,78.22a26.25,26.25,0,0,1,.39,4.88v1.69H50.22V89A7.32,7.32,0,0,0,50.46,91a2.19,2.19,0,0,0,.75,1.17,2.27,2.27,0,0,0,1.35.37,1.87,1.87,0,0,0,1.32-.41A2.18,2.18,0,0,0,54.49,91a8.79,8.79,0,0,0,.16-1.82V87.88H58.4v.8a8.13,8.13,0,0,1-1.34,4.93C56.18,94.81,54.66,95.41,52.53,95.41ZM50.22,82.7h4.43V80.83a14.65,14.65,0,0,0-.14-2.18,2.39,2.39,0,0,0-.6-1.33,1.94,1.94,0,0,0-1.42-.45,2.06,2.06,0,0,0-1.42.43,2.49,2.49,0,0,0-.67,1.46,17.12,17.12,0,0,0-.18,2.82Z" transform="translate(-19.48 -63.77)"/><path class="cls-1" d="M60.3,95.12,65,84.18l-4.57-9.87h3.67l3.06,6.59,2.7-6.59h3.78L68.87,84.64,73.7,95.12H70l-3.27-7.06-2.81,7.06Z" transform="translate(-19.48 -63.77)"/><path class="cls-1" d="M81.47,95.41a5,5,0,0,1-2.61-.61,3.55,3.55,0,0,1-1.44-1.73A7,7,0,0,1,77,90.44V76.87H74.78V74.31H77V68.23h3.85v6.08h3.35v2.56H80.82V90.19a3,3,0,0,0,.4,1.74,1.8,1.8,0,0,0,1.51.53c.19,0,.42,0,.67,0l.74-.07v2.84c-.49.07-.93.13-1.34.16S82,95.41,81.47,95.41Z" transform="translate(-19.48 -63.77)"/><path class="cls-1" d="M94.22,95.44A7.62,7.62,0,0,1,90,94.36a6.86,6.86,0,0,1-2.54-3,12.44,12.44,0,0,1-1-4.43l3.6-1a16.12,16.12,0,0,0,.48,3,5.38,5.38,0,0,0,1.24,2.36,3.17,3.17,0,0,0,2.42.92,3.08,3.08,0,0,0,2.39-.88,3.64,3.64,0,0,0,.81-2.54,5.22,5.22,0,0,0-.9-3.19,17.31,17.31,0,0,0-2.27-2.43l-4.89-4.32a8.26,8.26,0,0,1-2.13-2.75,9,9,0,0,1-.68-3.69,6.58,6.58,0,0,1,1.83-5,7,7,0,0,1,5-1.76,9.4,9.4,0,0,1,3,.45,5.36,5.36,0,0,1,2.2,1.38A7,7,0,0,1,100,69.9a13.28,13.28,0,0,1,.7,3.33l-3.45.94a14.8,14.8,0,0,0-.44-2.65,3.89,3.89,0,0,0-1.13-1.94,3.33,3.33,0,0,0-2.32-.74,3.27,3.27,0,0,0-2.36.81A3.18,3.18,0,0,0,90.18,72a4.76,4.76,0,0,0,.45,2.2A6.42,6.42,0,0,0,92.09,76L97,80.32a15.32,15.32,0,0,1,2.92,3.44,8.69,8.69,0,0,1,1.26,4.74,7.32,7.32,0,0,1-.9,3.72,6.07,6.07,0,0,1-2.47,2.4A7.63,7.63,0,0,1,94.22,95.44Z" transform="translate(-19.48 -63.77)"/><path class="cls-1" d="M120.85,95.41a6.18,6.18,0,0,1-3.63-.94,5,5,0,0,1-1.89-2.66,13.34,13.34,0,0,1-.56-4.07v-6a13.39,13.39,0,0,1,.56-4.07A5,5,0,0,1,117.22,75a6.25,6.25,0,0,1,3.63-.94,6.15,6.15,0,0,1,3.62.94,5,5,0,0,1,1.87,2.66,13.08,13.08,0,0,1,.56,4.07v6a13,13,0,0,1-.56,4.07,5,5,0,0,1-1.87,2.66A6.08,6.08,0,0,1,120.85,95.41Zm0-2.85a1.77,1.77,0,0,0,1.57-.64,3.53,3.53,0,0,0,.54-1.71q.09-1.06.09-2.22V81.48c0-.8,0-1.54-.09-2.24a3.6,3.6,0,0,0-.54-1.71,1.76,1.76,0,0,0-1.57-.66,1.8,1.8,0,0,0-1.58.66,3.5,3.5,0,0,0-.56,1.71c-.06.7-.09,1.44-.09,2.24V88q0,1.16.09,2.22a3.43,3.43,0,0,0,.56,1.71A1.82,1.82,0,0,0,120.85,92.56Z" transform="translate(-19.48 -63.77)"/><path class="cls-1" d="M130.43,102V74.31h3.85V76a6.57,6.57,0,0,1,1.66-1.37,4.46,4.46,0,0,1,2.3-.58,3.78,3.78,0,0,1,2.58.85A5.16,5.16,0,0,1,142.24,77a11.41,11.41,0,0,1,.61,2.6,19.84,19.84,0,0,1,.14,2.25v5a19.07,19.07,0,0,1-.43,4.15A6.62,6.62,0,0,1,141,94.2a4.15,4.15,0,0,1-3.19,1.21,3.61,3.61,0,0,1-2-.56,8.38,8.38,0,0,1-1.55-1.28V102Zm6.62-9.58a1.52,1.52,0,0,0,1.44-.73,4.76,4.76,0,0,0,.54-2c.08-.84.11-1.77.11-2.77v-5a19.64,19.64,0,0,0-.14-2.4,3.84,3.84,0,0,0-.61-1.74,1.7,1.7,0,0,0-1.48-.65,3.43,3.43,0,0,0-1.44.32,5.39,5.39,0,0,0-1.19.76V91.45a5.53,5.53,0,0,0,1.23.66A4.15,4.15,0,0,0,137.05,92.38Z" transform="translate(-19.48 -63.77)"/><path class="cls-1" d="M106.66,72.48V69.81a2.38,2.38,0,0,1,.3-1.06c.12-.23.22-.52.39-.52s.28.29.41.52a2.28,2.28,0,0,1,.29,1v2.73l.81.49a1.9,1.9,0,0,1,0-.52,1.85,1.85,0,0,1,0-.38h.72c0,.14,0,.3,0,.47a3.08,3.08,0,0,1-.1.7c1.27.67,3.07,1.65,3.38,1.81.15.09.19.66.19.66l-3.59-1.25H108l-.09,3.5-.21,1.08,1.65,1.17v.46l-1.9-.59-.18.79s0,.41-.06.41-.06-.41-.06-.41l-.23-.79-1.82.46v-.45l1.59-1L106.58,78l0-3.5h-1.48c-.54.12-1.12.27-1.71.45s-1.34.42-1.93.65c0-.07.14-.67.25-.72,1.23-.62,2.22-1.08,3.37-1.65a2.7,2.7,0,0,1,0-.78,3.18,3.18,0,0,1,0-.34h.72a1.83,1.83,0,0,1,0,.35,2.48,2.48,0,0,1,0,.49Z" transform="translate(-19.48 -63.77)"/><path class="cls-1" d="M106.21,81.48c0,.24-.31.63-.31.81v9.28a4.59,4.59,0,0,0,.92,2.16,4.79,4.79,0,0,0,2.65,1.68c.38,0,.79.09,1.24.11a11.91,11.91,0,0,0,1.65-.08,20.41,20.41,0,0,1-2.65-.69,7.35,7.35,0,0,1-2.32-2,4,4,0,0,1-.5-1.71v-9.6Z" transform="translate(-19.48 -63.77)"/><path class="cls-1" d="M108.08,81.48v9.57a3.89,3.89,0,0,0,.52,1.61,6.84,6.84,0,0,0,2.05,1.9,2.18,2.18,0,0,0,.7.33,7.2,7.2,0,0,1-2-1.87,4,4,0,0,1-.74-2.14V82.29c0-.26-.31-.54-.31-.81Z" transform="translate(-19.48 -63.77)"/></svg>